<?xml version="1.0" encoding="UTF-8"?>
<svg xmlns="http://www.w3.org/2000/svg" xmlns:xlink="http://www.w3.org/1999/xlink" width="37.5pt" height="37.499999pt" viewBox="0 0 37.5 37.499999" version="1.2">
<defs>
<clipPath id="clip1">
  <path d="M 0 0.375 L 37.007812 0.375 L 37.007812 37 L 0 37 Z M 0 0.375 "/>
</clipPath>
<clipPath id="clip2">
  <path d="M 0 0.375 L 37.007812 0.375 L 37.007812 37.007812 L 0 37.007812 Z M 0 0.375 "/>
</clipPath>
</defs>
<g id="surface1">
<g clip-path="url(#clip1)" clip-rule="nonzero">
<path style=" stroke:none;fill-rule:nonzero;fill:rgb(87.838745%,96.859741%,98.039246%);fill-opacity:1;" d="M 18.460938 36.914062 C 17.6875 36.914062 16.882812 36.859375 16.070312 36.75 C 15.929688 36.753906 15.789062 36.757812 15.648438 36.761719 C 15.351562 36.773438 15.046875 36.78125 14.742188 36.78125 C 14.394531 36.78125 14.09375 36.769531 13.820312 36.742188 C 12.972656 36.65625 12.6875 36.417969 12.210938 36.027344 C 12.101562 35.933594 11.976562 35.832031 11.832031 35.722656 C 11.449219 35.429688 11.113281 35.402344 10.722656 35.375 C 10.386719 35.347656 10.011719 35.320312 9.609375 35.101562 C 9.242188 34.902344 8.949219 34.476562 8.667969 34.0625 L 8.628906 34.003906 C 6.449219 32.589844 4.5625 30.683594 3.171875 28.492188 C 3.082031 28.414062 2.988281 28.339844 2.894531 28.265625 C 2.613281 28.039062 2.320312 27.804688 2.066406 27.542969 C 1.476562 26.941406 1.476562 26.277344 1.476562 25.632812 C 1.476562 25.441406 1.480469 25.238281 1.464844 25.039062 C 0.835938 23.320312 0.472656 21.511719 0.386719 19.667969 C 0.324219 19.128906 0.324219 18.65625 0.378906 18.226562 C 0.414062 17.160156 0.539062 16.101562 0.753906 15.078125 C 0.726562 15.011719 0.691406 14.949219 0.660156 14.882812 C 0.441406 14.445312 0.210938 13.992188 0.28125 13.421875 C 0.402344 12.460938 1.144531 11.929688 1.859375 11.417969 C 1.902344 11.386719 1.945312 11.359375 1.988281 11.328125 C 2.726562 9.710938 3.695312 8.210938 4.871094 6.875 C 4.957031 6.707031 5.078125 6.574219 5.230469 6.476562 C 8.433594 3.042969 12.765625 1.011719 17.433594 0.75 C 17.546875 0.714844 17.640625 0.6875 17.734375 0.660156 C 17.921875 0.613281 18.183594 0.585938 18.492188 0.585938 C 19.042969 0.585938 19.675781 0.667969 20.191406 0.804688 C 25.285156 1.289062 29.957031 3.933594 33.011719 8.0625 C 33.179688 8.148438 33.316406 8.234375 33.433594 8.324219 C 34.121094 8.871094 34.136719 9.3125 34.152344 9.78125 L 34.152344 9.8125 C 34.6875 10.742188 35.140625 11.714844 35.496094 12.714844 C 35.519531 12.730469 35.539062 12.75 35.5625 12.765625 C 35.800781 12.960938 36.050781 13.164062 36.238281 13.457031 C 36.515625 13.894531 36.59375 14.714844 36.65625 15.375 C 36.679688 15.59375 36.699219 15.796875 36.722656 15.953125 C 36.742188 16.097656 36.769531 16.257812 36.796875 16.429688 C 37.003906 17.648438 37.285156 19.304688 36.507812 20.070312 C 36.453125 20.902344 36.339844 21.726562 36.175781 22.523438 C 36.1875 22.648438 36.199219 22.8125 36.1875 22.988281 C 36.144531 23.679688 35.855469 24.253906 35.550781 24.769531 C 34.675781 27.277344 33.226562 29.605469 31.355469 31.507812 C 29.484375 33.410156 27.179688 34.898438 24.691406 35.8125 C 24.523438 35.90625 24.320312 35.992188 24.074219 36.066406 C 23.367188 36.289062 22.59375 36.5 21.707031 36.714844 C 21.152344 36.847656 20.570312 36.910156 19.882812 36.910156 C 19.679688 36.910156 19.460938 36.90625 19.222656 36.894531 C 18.984375 36.902344 18.726562 36.914062 18.460938 36.914062 "/>
</g>
<g clip-path="url(#clip2)" clip-rule="nonzero">
<path style=" stroke:none;fill-rule:nonzero;fill:rgb(14.898682%,19.60907%,21.958923%);fill-opacity:1;" d="M 18.492188 0.378906 C 18.265625 0.378906 17.9375 0.390625 17.679688 0.457031 C 17.59375 0.480469 17.5 0.507812 17.394531 0.542969 C 12.691406 0.8125 8.328125 2.859375 5.097656 6.3125 C 4.929688 6.425781 4.796875 6.570312 4.695312 6.753906 C 3.527344 8.089844 2.5625 9.578125 1.820312 11.1875 C 1.792969 11.207031 1.765625 11.226562 1.738281 11.246094 C 1.019531 11.761719 0.203125 12.34375 0.0742188 13.394531 C -0.00390625 14.027344 0.25 14.535156 0.472656 14.980469 C 0.496094 15.023438 0.515625 15.0625 0.535156 15.105469 C 0.328125 16.117188 0.207031 17.160156 0.171875 18.210938 C 0.113281 18.652344 0.113281 19.136719 0.179688 19.6875 C 0.265625 21.539062 0.628906 23.355469 1.257812 25.082031 C 1.269531 25.265625 1.269531 25.453125 1.269531 25.632812 C 1.265625 26.285156 1.265625 27.023438 1.914062 27.691406 C 2.179688 27.960938 2.476562 28.199219 2.761719 28.429688 C 2.847656 28.496094 2.929688 28.566406 3.011719 28.632812 C 4.410156 30.828125 6.296875 32.734375 8.480469 34.15625 L 8.496094 34.179688 C 8.792969 34.613281 9.097656 35.0625 9.507812 35.285156 C 9.949219 35.527344 10.351562 35.554688 10.707031 35.582031 C 11.078125 35.609375 11.371094 35.632812 11.703125 35.886719 C 11.84375 35.996094 11.96875 36.097656 12.078125 36.1875 C 12.566406 36.589844 12.890625 36.855469 13.800781 36.949219 C 14.078125 36.976562 14.386719 36.992188 14.742188 36.992188 C 15.046875 36.992188 15.355469 36.980469 15.65625 36.972656 C 15.789062 36.96875 15.925781 36.964844 16.058594 36.960938 C 16.875 37.066406 17.683594 37.121094 18.460938 37.121094 C 18.726562 37.121094 18.980469 37.113281 19.222656 37.105469 C 19.460938 37.113281 19.679688 37.121094 19.882812 37.121094 C 20.585938 37.121094 21.183594 37.054688 21.753906 36.917969 C 22.644531 36.703125 23.425781 36.488281 24.132812 36.269531 C 24.390625 36.1875 24.601562 36.101562 24.777344 36.003906 C 27.292969 35.078125 29.617188 33.574219 31.503906 31.65625 C 33.390625 29.738281 34.855469 27.386719 35.738281 24.859375 C 36.054688 24.324219 36.351562 23.730469 36.398438 23.003906 C 36.410156 22.828125 36.398438 22.664062 36.386719 22.535156 C 36.546875 21.761719 36.65625 20.964844 36.714844 20.160156 C 37.496094 19.300781 37.214844 17.632812 37.003906 16.394531 C 36.976562 16.222656 36.949219 16.0625 36.929688 15.921875 C 36.90625 15.769531 36.886719 15.570312 36.867188 15.355469 C 36.796875 14.636719 36.722656 13.824219 36.414062 13.34375 C 36.207031 13.023438 35.945312 12.808594 35.695312 12.601562 L 35.675781 12.589844 C 35.324219 11.613281 34.882812 10.660156 34.363281 9.75 C 34.347656 9.285156 34.320312 8.757812 33.566406 8.160156 C 33.445312 8.066406 33.3125 7.984375 33.152344 7.898438 C 30.0625 3.75 25.359375 1.089844 20.226562 0.597656 C 19.695312 0.457031 19.0625 0.378906 18.492188 0.378906 M 18.492188 0.796875 C 18.996094 0.796875 19.617188 0.867188 20.152344 1.015625 C 25.367188 1.503906 29.933594 4.230469 32.875 8.230469 C 33.027344 8.304688 33.171875 8.386719 33.304688 8.492188 C 33.953125 9.003906 33.925781 9.390625 33.945312 9.871094 C 34.488281 10.808594 34.953125 11.800781 35.320312 12.839844 C 35.589844 13.0625 35.867188 13.265625 36.058594 13.570312 C 36.398438 14.101562 36.417969 15.347656 36.511719 15.984375 C 36.679688 17.105469 37.1875 19.21875 36.304688 19.972656 C 36.25 20.835938 36.136719 21.683594 35.960938 22.511719 C 35.980469 22.664062 35.988281 22.816406 35.976562 22.976562 C 35.9375 23.621094 35.671875 24.15625 35.359375 24.679688 C 33.601562 29.746094 29.628906 33.78125 24.601562 35.621094 C 24.453125 35.707031 24.265625 35.789062 24.011719 35.867188 C 23.214844 36.113281 22.421875 36.324219 21.65625 36.507812 C 21.058594 36.652344 20.472656 36.699219 19.882812 36.699219 C 19.664062 36.699219 19.441406 36.695312 19.222656 36.683594 C 18.96875 36.695312 18.714844 36.703125 18.460938 36.703125 C 17.652344 36.703125 16.859375 36.644531 16.082031 36.539062 C 15.640625 36.550781 15.1875 36.574219 14.742188 36.574219 C 14.4375 36.574219 14.136719 36.5625 13.84375 36.53125 C 12.867188 36.433594 12.714844 36.136719 11.960938 35.554688 C 11.167969 34.949219 10.511719 35.351562 9.707031 34.917969 C 9.363281 34.726562 9.0625 34.261719 8.777344 33.851562 C 6.585938 32.4375 4.726562 30.558594 3.332031 28.351562 C 2.953125 28.039062 2.554688 27.742188 2.214844 27.398438 C 1.511719 26.679688 1.742188 25.890625 1.671875 24.992188 C 1.054688 23.316406 0.683594 21.523438 0.597656 19.652344 C 0.539062 19.179688 0.527344 18.703125 0.589844 18.246094 C 0.625 17.152344 0.753906 16.085938 0.976562 15.050781 C 0.734375 14.539062 0.414062 14.058594 0.492188 13.449219 C 0.605469 12.503906 1.40625 12.007812 2.15625 11.464844 C 2.898438 9.828125 3.875 8.324219 5.046875 6.992188 C 5.113281 6.851562 5.214844 6.730469 5.367188 6.640625 C 8.421875 3.355469 12.699219 1.21875 17.476562 0.960938 C 17.578125 0.925781 17.679688 0.890625 17.789062 0.863281 C 17.960938 0.820312 18.207031 0.796875 18.492188 0.796875 "/>
</g>
<path style=" stroke:none;fill-rule:nonzero;fill:rgb(14.898682%,19.60907%,21.958923%);fill-opacity:1;" d="M 17.8125 18.246094 C 17.796875 18.246094 17.78125 18.238281 17.777344 18.21875 C 17.640625 17.65625 17.914062 17.148438 18.476562 16.988281 C 18.5 16.984375 18.519531 16.980469 18.539062 16.980469 C 18.753906 16.980469 18.792969 17.339844 18.527344 17.371094 C 18.085938 17.417969 17.851562 17.785156 17.851562 18.207031 C 17.851562 18.230469 17.832031 18.246094 17.8125 18.246094 "/>
<path style=" stroke:none;fill-rule:nonzero;fill:rgb(14.898682%,19.60907%,21.958923%);fill-opacity:1;" d="M 8.652344 16.464844 C 8.558594 16.464844 8.472656 16.40625 8.445312 16.316406 L 8.441406 16.316406 C 8.335938 16.289062 8.222656 16.253906 8.136719 16.183594 C 7.972656 16.058594 7.882812 15.855469 8 15.65625 C 8.0625 15.546875 8.199219 15.460938 8.332031 15.460938 C 8.367188 15.460938 8.402344 15.46875 8.433594 15.480469 C 8.566406 15.53125 8.769531 15.632812 8.867188 15.761719 C 9.042969 15.9375 9.003906 16.242188 8.808594 16.40625 C 8.757812 16.449219 8.707031 16.464844 8.652344 16.464844 "/>
<path style=" stroke:none;fill-rule:nonzero;fill:rgb(14.898682%,19.60907%,21.958923%);fill-opacity:1;" d="M 8.074219 12.140625 C 7.757812 12.140625 7.625 11.800781 7.746094 11.546875 C 7.785156 11.453125 7.863281 11.371094 7.949219 11.320312 C 7.964844 11.308594 8.042969 11.25 8.050781 11.25 C 8.050781 11.25 8.050781 11.253906 8.039062 11.265625 C 8.09375 11.210938 8.085938 11.238281 8.109375 11.191406 C 8.109375 11.191406 8.105469 11.191406 8.105469 11.191406 C 8.101562 11.191406 8.101562 11.148438 8.089844 11.117188 C 8.035156 10.953125 7.769531 10.933594 7.625 10.894531 C 7.554688 10.871094 7.554688 10.769531 7.625 10.75 C 7.761719 10.710938 7.902344 10.683594 8.039062 10.683594 C 8.265625 10.683594 8.480469 10.753906 8.636719 10.949219 C 8.996094 11.386719 8.65625 12.125 8.085938 12.140625 C 8.082031 12.140625 8.078125 12.140625 8.074219 12.140625 "/>
<path style=" stroke:none;fill-rule:nonzero;fill:rgb(14.898682%,19.60907%,21.958923%);fill-opacity:1;" d="M 22.304688 6.027344 C 21.816406 6.027344 21.6875 5.269531 21.730469 4.757812 L 21.714844 4.75 C 21.675781 4.726562 21.652344 4.679688 21.667969 4.632812 C 21.722656 4.449219 21.851562 4.378906 22.007812 4.378906 C 22.304688 4.378906 22.699219 4.632812 22.835938 4.808594 C 23.148438 5.195312 23.039062 5.753906 22.574219 5.960938 C 22.476562 6.007812 22.386719 6.027344 22.304688 6.027344 M 21.933594 4.828125 C 21.953125 4.953125 21.984375 5.074219 22.023438 5.1875 C 22.058594 5.300781 22.164062 5.632812 22.324219 5.632812 C 22.328125 5.632812 22.332031 5.632812 22.332031 5.632812 C 22.660156 5.605469 22.664062 5.207031 22.472656 5.027344 C 22.363281 4.929688 22.214844 4.84375 22.0625 4.835938 C 22.015625 4.835938 21.976562 4.832031 21.933594 4.828125 "/>
<path style=" stroke:none;fill-rule:nonzero;fill:rgb(14.898682%,19.60907%,21.958923%);fill-opacity:1;" d="M 24.03125 15.078125 C 23.722656 15.078125 23.402344 14.996094 23.285156 14.730469 C 23.226562 14.59375 23.296875 14.453125 23.453125 14.441406 C 23.464844 14.4375 23.476562 14.4375 23.488281 14.4375 C 23.625 14.4375 23.734375 14.503906 23.871094 14.527344 C 23.984375 14.546875 24.09375 14.558594 24.207031 14.558594 C 24.238281 14.226562 24.097656 14.003906 23.710938 13.925781 C 23.390625 13.863281 23.054688 13.832031 22.734375 13.78125 C 22.710938 13.777344 22.710938 13.742188 22.734375 13.738281 C 23.015625 13.691406 23.316406 13.617188 23.613281 13.617188 C 23.773438 13.617188 23.933594 13.636719 24.085938 13.695312 C 24.566406 13.878906 24.699219 14.308594 24.648438 14.792969 C 24.636719 14.898438 24.582031 14.996094 24.472656 15.023438 C 24.347656 15.054688 24.191406 15.078125 24.03125 15.078125 "/>
<path style=" stroke:none;fill-rule:nonzero;fill:rgb(14.898682%,19.60907%,21.958923%);fill-opacity:1;" d="M 30.859375 16.207031 C 30.71875 16.207031 30.582031 16.191406 30.445312 16.136719 C 30.28125 16.074219 30.1875 15.957031 30.175781 15.78125 C 30.167969 15.6875 30.167969 15.59375 30.171875 15.5 C 30.183594 15.261719 30.359375 15.144531 30.539062 15.144531 C 30.601562 15.144531 30.660156 15.15625 30.714844 15.183594 C 30.695312 14.800781 30.625 14.417969 30.621094 14.03125 C 30.621094 13.980469 30.664062 13.953125 30.703125 13.953125 C 30.730469 13.953125 30.757812 13.964844 30.773438 13.992188 C 31.128906 14.554688 31.378906 15.183594 31.359375 15.859375 C 31.355469 16.054688 31.210938 16.1875 31.023438 16.199219 C 30.964844 16.203125 30.914062 16.207031 30.859375 16.207031 "/>
<path style=" stroke:none;fill-rule:nonzero;fill:rgb(14.898682%,19.60907%,21.958923%);fill-opacity:1;" d="M 29.761719 28.953125 C 29.511719 28.953125 29.277344 28.863281 29.097656 28.636719 C 28.3125 27.640625 29.359375 25.683594 30.617188 25.683594 C 30.730469 25.683594 30.84375 25.699219 30.960938 25.734375 C 30.988281 25.742188 30.980469 25.777344 30.957031 25.777344 C 30.398438 25.828125 29.851562 26.289062 29.5625 26.746094 C 29.296875 27.164062 28.972656 27.894531 29.421875 28.3125 C 29.550781 28.429688 29.691406 28.480469 29.835938 28.480469 C 30.152344 28.480469 30.476562 28.242188 30.675781 27.992188 C 30.824219 27.8125 30.957031 27.597656 30.996094 27.367188 C 31.027344 27.1875 31 27.007812 31.050781 26.828125 C 31.070312 26.757812 31.128906 26.722656 31.1875 26.722656 C 31.226562 26.722656 31.265625 26.734375 31.300781 26.761719 C 31.855469 27.210938 31.1875 28.230469 30.785156 28.550781 C 30.511719 28.761719 30.125 28.953125 29.761719 28.953125 "/>
<path style=" stroke:none;fill-rule:nonzero;fill:rgb(14.898682%,19.60907%,21.958923%);fill-opacity:1;" d="M 24.0625 32.191406 C 24.050781 32.191406 24.035156 32.191406 24.019531 32.191406 C 23.625 32.160156 23.296875 31.941406 23.023438 31.664062 C 23 31.640625 23.015625 31.589844 23.050781 31.589844 C 23.054688 31.589844 23.054688 31.589844 23.054688 31.589844 C 23.179688 31.605469 23.316406 31.613281 23.453125 31.613281 C 23.574219 31.613281 23.695312 31.605469 23.804688 31.582031 C 23.851562 31.574219 23.902344 31.566406 23.949219 31.550781 C 23.957031 31.515625 23.96875 31.472656 23.972656 31.453125 C 23.992188 31.371094 24.042969 31.316406 24.09375 31.257812 C 24.15625 31.1875 24.246094 31.152344 24.339844 31.152344 C 24.433594 31.152344 24.53125 31.1875 24.59375 31.257812 C 24.972656 31.660156 24.523438 32.191406 24.0625 32.191406 "/>
<path style=" stroke:none;fill-rule:nonzero;fill:rgb(14.898682%,19.60907%,21.958923%);fill-opacity:1;" d="M 22.585938 28.96875 C 22.527344 28.96875 22.46875 28.964844 22.40625 28.949219 C 22.082031 28.882812 21.636719 28.453125 21.949219 28.121094 C 21.996094 28.074219 22.0625 28.050781 22.128906 28.050781 C 22.191406 28.050781 22.253906 28.070312 22.308594 28.105469 C 22.351562 28.136719 22.492188 28.3125 22.554688 28.3125 C 22.558594 28.3125 22.5625 28.3125 22.566406 28.3125 C 22.953125 28.179688 22.882812 27.621094 22.625 27.40625 C 22.445312 27.253906 22.226562 27.179688 22.003906 27.179688 C 21.816406 27.179688 21.625 27.234375 21.457031 27.34375 C 21.457031 27.347656 21.453125 27.347656 21.449219 27.347656 C 21.4375 27.347656 21.429688 27.332031 21.441406 27.320312 C 21.640625 27.132812 21.917969 27.035156 22.191406 27.035156 C 22.511719 27.035156 22.828125 27.164062 23.027344 27.429688 C 23.398438 27.921875 23.304688 28.96875 22.585938 28.96875 "/>
<path style=" stroke:none;fill-rule:nonzero;fill:rgb(14.898682%,19.60907%,21.958923%);fill-opacity:1;" d="M 13.445312 5.835938 C 13.140625 5.835938 12.882812 5.625 12.683594 5.367188 C 12.660156 5.332031 12.695312 5.289062 12.730469 5.289062 C 12.738281 5.289062 12.75 5.289062 12.757812 5.296875 C 12.90625 5.398438 13.179688 5.578125 13.40625 5.578125 C 13.492188 5.578125 13.570312 5.554688 13.632812 5.492188 C 13.75 5.382812 13.808594 5.226562 13.820312 5.066406 C 13.832031 4.914062 13.789062 4.765625 13.886719 4.636719 C 13.914062 4.597656 13.960938 4.570312 14.007812 4.570312 C 14.039062 4.570312 14.070312 4.582031 14.09375 4.609375 C 14.371094 4.894531 14.078125 5.625 13.738281 5.773438 C 13.636719 5.816406 13.539062 5.835938 13.445312 5.835938 "/>
<path style=" stroke:none;fill-rule:nonzero;fill:rgb(14.898682%,19.60907%,21.958923%);fill-opacity:1;" d="M 3.792969 19.484375 C 3.699219 19.484375 3.605469 19.460938 3.519531 19.402344 C 3.507812 19.394531 3.5 19.386719 3.488281 19.378906 C 3.277344 19.238281 3.195312 19.03125 3.242188 18.78125 C 3.289062 18.546875 3.453125 18.417969 3.660156 18.332031 C 3.648438 18.335938 3.640625 18.339844 3.636719 18.339844 C 3.632812 18.339844 3.679688 18.3125 3.710938 18.296875 C 3.734375 18.265625 3.777344 18.210938 3.78125 18.210938 C 3.78125 18.210938 3.785156 18.214844 3.78125 18.214844 L 3.785156 18.210938 C 3.753906 18.164062 3.722656 18.117188 3.691406 18.070312 C 3.640625 17.984375 3.59375 17.894531 3.546875 17.808594 C 3.492188 17.710938 3.558594 17.582031 3.671875 17.582031 C 3.671875 17.582031 3.671875 17.582031 3.675781 17.582031 C 3.898438 17.589844 4.011719 17.761719 4.191406 17.859375 C 4.203125 17.855469 4.21875 17.855469 4.230469 17.855469 C 4.292969 17.855469 4.355469 17.871094 4.410156 17.902344 C 4.746094 18.097656 4.800781 18.410156 4.746094 18.769531 C 4.703125 19.0625 4.355469 19.289062 4.113281 19.402344 C 4.015625 19.453125 3.902344 19.484375 3.792969 19.484375 "/>
<path style=" stroke:none;fill-rule:nonzero;fill:rgb(14.898682%,19.60907%,21.958923%);fill-opacity:1;" d="M 8.257812 29.902344 C 8.160156 29.902344 8.070312 29.878906 7.984375 29.824219 C 7.972656 29.816406 7.960938 29.808594 7.949219 29.800781 C 7.742188 29.65625 7.660156 29.453125 7.707031 29.203125 C 7.753906 28.964844 7.914062 28.839844 8.125 28.75 C 8.109375 28.757812 8.105469 28.757812 8.101562 28.757812 C 8.097656 28.757812 8.144531 28.734375 8.175781 28.71875 C 8.199219 28.683594 8.238281 28.632812 8.246094 28.632812 C 8.246094 28.632812 8.246094 28.632812 8.246094 28.636719 L 8.25 28.628906 C 8.21875 28.582031 8.1875 28.539062 8.15625 28.488281 C 8.101562 28.402344 8.058594 28.316406 8.011719 28.226562 C 7.957031 28.132812 8.019531 28.003906 8.132812 28.003906 C 8.136719 28.003906 8.136719 28.003906 8.136719 28.003906 C 8.363281 28.007812 8.476562 28.183594 8.652344 28.277344 C 8.667969 28.277344 8.679688 28.277344 8.695312 28.277344 C 8.757812 28.277344 8.820312 28.292969 8.875 28.320312 C 9.207031 28.519531 9.265625 28.828125 9.210938 29.191406 C 9.167969 29.480469 8.816406 29.707031 8.578125 29.824219 C 8.480469 29.871094 8.367188 29.902344 8.257812 29.902344 "/>
<path style=" stroke:none;fill-rule:nonzero;fill:rgb(14.898682%,19.60907%,21.958923%);fill-opacity:1;" d="M 16.800781 14.894531 C 16.765625 14.894531 16.726562 14.894531 16.6875 14.890625 C 16.605469 14.820312 16.527344 14.746094 16.445312 14.675781 C 16.460938 14.675781 16.480469 14.675781 16.496094 14.675781 C 16.929688 14.675781 17.367188 14.601562 17.796875 14.441406 C 19.742188 13.714844 20.726562 11.550781 20 9.609375 C 19.4375 8.097656 18.003906 7.164062 16.480469 7.164062 C 16.042969 7.164062 15.601562 7.242188 15.167969 7.40625 C 14.40625 7.6875 13.796875 8.195312 13.375 8.820312 C 13.351562 8.777344 13.324219 8.734375 13.296875 8.691406 C 13.753906 7.933594 14.460938 7.316406 15.355469 6.980469 C 15.828125 6.804688 16.3125 6.71875 16.785156 6.71875 C 18.445312 6.71875 20.003906 7.734375 20.617188 9.378906 C 21.40625 11.492188 20.332031 13.847656 18.21875 14.636719 C 17.75 14.8125 17.273438 14.894531 16.800781 14.894531 "/>
<path style=" stroke:none;fill-rule:nonzero;fill:rgb(14.898682%,19.60907%,21.958923%);fill-opacity:1;" d="M 22.257812 24.414062 C 21.695312 23.578125 21.402344 22.554688 21.488281 21.472656 C 21.683594 19.039062 23.71875 17.199219 26.113281 17.199219 C 26.238281 17.199219 26.367188 17.203125 26.492188 17.214844 C 29.050781 17.417969 30.957031 19.660156 30.75 22.21875 C 30.699219 22.832031 30.53125 23.402344 30.273438 23.917969 C 30.160156 23.964844 30.046875 24.011719 29.933594 24.0625 C 30.15625 23.601562 30.300781 23.097656 30.34375 22.558594 C 30.535156 20.207031 28.78125 18.148438 26.433594 17.957031 C 26.316406 17.949219 26.199219 17.945312 26.085938 17.945312 C 23.882812 17.945312 22.015625 19.636719 21.835938 21.871094 C 21.761719 22.789062 21.984375 23.660156 22.425781 24.394531 C 22.371094 24.402344 22.3125 24.410156 22.257812 24.414062 "/>
<path style=" stroke:none;fill-rule:nonzero;fill:rgb(14.898682%,19.60907%,21.958923%);fill-opacity:1;" d="M 26.96875 10.925781 C 26.9375 10.925781 26.90625 10.921875 26.878906 10.921875 C 27.804688 10.875 28.546875 10.109375 28.546875 9.167969 C 28.546875 8.199219 27.757812 7.410156 26.789062 7.410156 C 25.847656 7.410156 25.082031 8.148438 25.035156 9.078125 C 25.03125 9.046875 25.03125 9.019531 25.03125 8.988281 C 25.03125 7.917969 25.898438 7.046875 26.96875 7.046875 C 28.039062 7.046875 28.90625 7.917969 28.90625 8.988281 C 28.90625 10.058594 28.039062 10.925781 26.96875 10.925781 "/>
<path style=" stroke:none;fill-rule:nonzero;fill:rgb(14.898682%,19.60907%,21.958923%);fill-opacity:1;" d="M 16.679688 25.066406 C 16.648438 25.066406 16.617188 25.0625 16.589844 25.0625 C 17.515625 25.015625 18.253906 24.25 18.253906 23.308594 C 18.253906 22.339844 17.46875 21.550781 16.496094 21.550781 C 15.558594 21.550781 14.792969 22.289062 14.742188 23.21875 C 14.742188 23.1875 14.738281 23.160156 14.738281 23.128906 C 14.738281 22.058594 15.605469 21.191406 16.679688 21.191406 C 17.75 21.191406 18.617188 22.058594 18.617188 23.128906 C 18.617188 24.199219 17.75 25.066406 16.679688 25.066406 "/>
<path style=" stroke:none;fill-rule:nonzero;fill:rgb(14.898682%,19.60907%,21.958923%);fill-opacity:1;" d="M 18.699219 34.128906 C 18.671875 34.128906 18.640625 34.125 18.609375 34.125 C 19.539062 34.078125 20.277344 33.3125 20.277344 32.371094 C 20.277344 31.398438 19.492188 30.613281 18.519531 30.613281 C 17.578125 30.613281 16.8125 31.351562 16.765625 32.28125 C 16.765625 32.25 16.761719 32.21875 16.761719 32.191406 C 16.761719 31.117188 17.628906 30.25 18.699219 30.25 C 19.769531 30.25 20.640625 31.117188 20.640625 32.191406 C 20.640625 33.261719 19.769531 34.128906 18.699219 34.128906 "/>
<path style=" stroke:none;fill-rule:nonzero;fill:rgb(14.898682%,19.60907%,21.958923%);fill-opacity:1;" d="M 17.101562 28.515625 C 17 28.515625 16.898438 28.503906 16.796875 28.476562 C 16.15625 28.3125 15.773438 27.65625 15.941406 27.015625 C 16.082031 26.476562 16.566406 26.117188 17.097656 26.117188 C 17.199219 26.117188 17.300781 26.132812 17.402344 26.15625 C 17.421875 26.164062 17.4375 26.167969 17.457031 26.175781 C 17.382812 26.160156 17.308594 26.152344 17.234375 26.152344 C 16.753906 26.152344 16.3125 26.476562 16.183594 26.964844 C 16.035156 27.546875 16.382812 28.136719 16.964844 28.289062 C 17.054688 28.3125 17.148438 28.324219 17.238281 28.324219 C 17.703125 28.324219 18.125 28.023438 18.273438 27.566406 C 18.269531 27.582031 18.265625 27.601562 18.261719 27.621094 C 18.121094 28.160156 17.632812 28.515625 17.101562 28.515625 "/>
<path style=" stroke:none;fill-rule:nonzero;fill:rgb(14.898682%,19.60907%,21.958923%);fill-opacity:1;" d="M 10.804688 27.578125 C 9.429688 27.578125 8.3125 26.464844 8.3125 25.085938 C 8.3125 23.710938 9.429688 22.59375 10.804688 22.59375 C 12.179688 22.59375 13.296875 23.710938 13.296875 25.085938 C 13.296875 26.464844 12.179688 27.578125 10.804688 27.578125 M 10.800781 22.769531 C 9.640625 22.769531 8.703125 23.707031 8.703125 24.867188 C 8.703125 26.023438 9.640625 26.960938 10.800781 26.960938 C 11.957031 26.960938 12.894531 26.023438 12.894531 24.867188 C 12.894531 23.707031 11.957031 22.769531 10.800781 22.769531 "/>
<path style=" stroke:none;fill-rule:nonzero;fill:rgb(14.898682%,19.60907%,21.958923%);fill-opacity:1;" d="M 13.84375 29.765625 C 13.035156 29.765625 12.375 29.105469 12.375 28.292969 C 12.375 27.480469 13.035156 26.824219 13.84375 26.824219 C 14.65625 26.824219 15.316406 27.480469 15.316406 28.292969 C 15.316406 29.105469 14.65625 29.765625 13.84375 29.765625 M 13.84375 26.925781 C 13.160156 26.925781 12.605469 27.480469 12.605469 28.164062 C 12.605469 28.847656 13.160156 29.398438 13.84375 29.398438 C 14.527344 29.398438 15.078125 28.847656 15.078125 28.164062 C 15.078125 27.480469 14.527344 26.925781 13.84375 26.925781 "/>
<path style=" stroke:none;fill-rule:nonzero;fill:rgb(14.898682%,19.60907%,21.958923%);fill-opacity:1;" d="M 10.855469 21.976562 C 10.421875 21.976562 10.070312 21.625 10.070312 21.191406 C 10.070312 20.757812 10.421875 20.40625 10.855469 20.40625 C 11.289062 20.40625 11.640625 20.757812 11.640625 21.191406 C 11.640625 21.625 11.289062 21.976562 10.855469 21.976562 M 10.855469 20.460938 C 10.492188 20.460938 10.195312 20.753906 10.195312 21.121094 C 10.195312 21.484375 10.492188 21.78125 10.855469 21.78125 C 11.21875 21.78125 11.515625 21.484375 11.515625 21.121094 C 11.515625 20.753906 11.21875 20.460938 10.855469 20.460938 "/>
<path style=" stroke:none;fill-rule:nonzero;fill:rgb(14.898682%,19.60907%,21.958923%);fill-opacity:1;" d="M 13.953125 33.242188 C 13.523438 33.242188 13.171875 32.890625 13.171875 32.457031 C 13.171875 32.023438 13.523438 31.671875 13.953125 31.671875 C 14.386719 31.671875 14.738281 32.023438 14.738281 32.457031 C 14.738281 32.890625 14.386719 33.242188 13.953125 33.242188 M 13.953125 31.726562 C 13.589844 31.726562 13.292969 32.023438 13.292969 32.386719 C 13.292969 32.75 13.589844 33.046875 13.953125 33.046875 C 14.316406 33.046875 14.613281 32.75 14.613281 32.386719 C 14.613281 32.023438 14.316406 31.726562 13.953125 31.726562 "/>
<path style=" stroke:none;fill-rule:nonzero;fill:rgb(14.898682%,19.60907%,21.958923%);fill-opacity:1;" d="M 5.28125 26.46875 C 4.5625 26.46875 3.980469 25.886719 3.980469 25.167969 C 3.980469 24.449219 4.5625 23.867188 5.28125 23.867188 C 6 23.867188 6.582031 24.449219 6.582031 25.167969 C 6.582031 25.886719 6 26.46875 5.28125 26.46875 M 5.28125 23.957031 C 4.675781 23.957031 4.183594 24.445312 4.183594 25.050781 C 4.183594 25.65625 4.675781 26.144531 5.28125 26.144531 C 5.882812 26.144531 6.375 25.65625 6.375 25.050781 C 6.375 24.445312 5.882812 23.957031 5.28125 23.957031 "/>
<path style=" stroke:none;fill-rule:nonzero;fill:rgb(14.898682%,19.60907%,21.958923%);fill-opacity:1;" d="M 14.988281 16.246094 C 14.554688 16.246094 14.203125 15.894531 14.203125 15.460938 C 14.203125 15.027344 14.554688 14.675781 14.988281 14.675781 C 15.421875 14.675781 15.773438 15.027344 15.773438 15.460938 C 15.773438 15.894531 15.421875 16.246094 14.988281 16.246094 M 14.988281 14.730469 C 14.621094 14.730469 14.328125 15.027344 14.328125 15.390625 C 14.328125 15.757812 14.621094 16.050781 14.988281 16.050781 C 15.351562 16.050781 15.648438 15.757812 15.648438 15.390625 C 15.648438 15.027344 15.351562 14.730469 14.988281 14.730469 "/>
</g>
</svg>
