<?xml version="1.0" encoding="UTF-8"?>
<svg xmlns="http://www.w3.org/2000/svg" xmlns:xlink="http://www.w3.org/1999/xlink" width="45pt" height="44.999999pt" viewBox="0 0 45 44.999999" version="1.2">
<g id="surface1">
<path style=" stroke:none;fill-rule:nonzero;fill:rgb(14.898682%,19.60907%,21.958923%);fill-opacity:1;" d="M 33.527344 23.125 C 33.152344 23.574219 32.617188 23.800781 32.074219 23.800781 C 31.644531 23.800781 31.210938 23.65625 30.855469 23.355469 L 22.5 16.332031 L 14.144531 23.355469 C 13.34375 24.03125 12.144531 23.929688 11.46875 23.125 C 10.796875 22.324219 10.898438 21.128906 11.703125 20.453125 L 21.277344 12.402344 C 21.984375 11.804688 23.015625 11.804688 23.722656 12.402344 L 33.296875 20.453125 C 34.101562 21.128906 34.203125 22.324219 33.527344 23.125 Z M 33.527344 30.488281 C 33.152344 30.9375 32.617188 31.167969 32.074219 31.167969 C 31.644531 31.167969 31.210938 31.019531 30.855469 30.722656 L 22.5 23.695312 L 14.144531 30.722656 C 13.34375 31.394531 12.144531 31.292969 11.46875 30.488281 C 10.796875 29.6875 10.898438 28.492188 11.703125 27.816406 L 21.277344 19.765625 C 21.984375 19.171875 23.015625 19.171875 23.722656 19.765625 L 33.296875 27.816406 C 34.101562 28.492188 34.203125 29.6875 33.527344 30.488281 Z M 22.5 0 C 10.09375 0 0 10.09375 0 22.5 C 0 34.90625 10.09375 45 22.5 45 C 34.90625 45 45 34.90625 45 22.5 C 45 10.09375 34.90625 0 22.5 0 "/>
</g>
</svg>
